<svg width="48" height="48" viewBox="0 0 48 48" fill="none" xmlns="http://www.w3.org/2000/svg">
<path d="M37.5798 11.34C37.5794 10.6629 37.3499 10.0058 36.9287 9.4757C36.5075 8.94555 35.9193 8.57348 35.2598 8.42001L34.4998 5.66001C34.3611 5.21371 34.0815 4.82438 33.7029 4.55035C33.3243 4.27632 32.8671 4.13235 32.3998 4.14001H15.5798C15.1143 4.12979 14.6584 4.27311 14.2824 4.54783C13.9065 4.82255 13.6315 5.21339 13.4998 5.66001L12.7398 8.42001C12.0563 8.59238 11.4528 8.99445 11.0304 9.55883C10.608 10.1232 10.3924 10.8156 10.4198 11.52C10.4181 12.1591 10.6239 12.7814 11.0062 13.2935C11.3885 13.8057 11.9266 14.1799 12.5398 14.36L12.7398 19.9C12.4196 19.952 12.1249 20.1064 11.8998 20.34C11.7584 20.4891 11.6484 20.6651 11.5763 20.8574C11.5042 21.0498 11.4713 21.2547 11.4798 21.46L11.9598 32.98C11.9744 33.334 12.1123 33.6718 12.3498 33.9348C12.5872 34.1978 12.9091 34.3694 13.2598 34.42L13.4198 38.86C13.461 40.2042 14.0255 41.4792 14.9932 42.4132C15.9608 43.3472 17.255 43.8664 18.5998 43.86H29.3798C30.7278 43.8706 32.0265 43.3534 32.9982 42.4191C33.9699 41.4848 34.5375 40.2074 34.5798 38.86L34.7398 34.42C35.0867 34.3648 35.4037 34.1912 35.6371 33.9287C35.8704 33.6662 36.0057 33.331 36.0198 32.98L36.4998 21.46C36.5083 21.2547 36.4754 21.0498 36.4033 20.8574C36.3312 20.6651 36.2212 20.4891 36.0798 20.34C35.8627 20.1066 35.5743 19.9519 35.2598 19.9L35.4598 14.36C36.0929 14.1547 36.6421 13.7491 37.0245 13.2043C37.4069 12.6596 37.6018 12.0052 37.5798 11.34ZM15.5798 6.14001L32.5598 6.20001L33.1598 8.34001H14.8798L15.5798 6.14001ZM32.5798 38.8C32.5547 39.6279 32.2051 40.4128 31.6064 40.9853C31.0078 41.5578 30.208 41.8719 29.3798 41.86H18.5998C17.7746 41.8682 16.979 41.5522 16.3844 40.98C15.7897 40.4077 15.4433 39.625 15.4198 38.8L15.2598 34.44H32.7398L32.5798 38.8ZM19.7998 27.16C19.7998 26.3293 20.0461 25.5173 20.5076 24.8266C20.9691 24.1359 21.6251 23.5976 22.3925 23.2797C23.16 22.9618 24.0045 22.8787 24.8192 23.0407C25.6339 23.2028 26.3823 23.6028 26.9696 24.1902C27.557 24.7775 27.957 25.5259 28.1191 26.3406C28.2812 27.1553 28.198 27.9998 27.8801 28.7673C27.5622 29.5347 27.0239 30.1907 26.3332 30.6522C25.6425 31.1137 24.8305 31.36 23.9998 31.36C22.8859 31.36 21.8176 30.9175 21.03 30.1299C20.2423 29.3422 19.7998 28.2739 19.7998 27.16ZM33.2598 19.86H14.7398L14.5398 14.52H33.4398L33.2598 19.86ZM34.5798 12.52H13.4198C13.2742 12.5151 13.1312 12.4798 13.0001 12.4164C12.869 12.3529 12.7525 12.2627 12.6584 12.1516C12.5642 12.0404 12.4943 11.9108 12.4532 11.771C12.4121 11.6313 12.4007 11.4844 12.4198 11.34C12.4198 11.0748 12.5252 10.8204 12.7127 10.6329C12.9002 10.4454 13.1546 10.34 13.4198 10.34H34.5798C34.7248 10.3467 34.8668 10.3832 34.9971 10.4472C35.1274 10.5112 35.243 10.6014 35.3369 10.7122C35.4307 10.8229 35.5007 10.9518 35.5425 11.0908C35.5843 11.2298 35.597 11.3759 35.5798 11.52C35.5798 11.7852 35.4744 12.0396 35.2869 12.2271C35.0994 12.4146 34.845 12.52 34.5798 12.52Z" fill="#B4B4B4"/>
</svg>
