<svg width="48" height="48" viewBox="0 0 48 48" fill="none" xmlns="http://www.w3.org/2000/svg">
<path d="M36.76 12.48C35.58 6.48 30.28 2 24 2C17.72 2 12.42 6.48 11.24 12.48C9.70357 13.049 8.37802 14.0745 7.44134 15.4187C6.50466 16.7629 6.0017 18.3616 6 20C6 24.42 9.58 28 14 28C14.24 28 14.46 27.96 14.68 27.96L24.14 46L33.36 27.94C33.58 27.96 33.78 28 34 28C38.42 28 42 24.42 42 20C42 16.58 39.84 13.62 36.76 12.48ZM24.1 37.26L18.64 26.84C20.3368 27.6119 22.1803 28.0079 24.0444 28.001C25.9084 27.9941 27.749 27.5844 29.44 26.8L24.1 37.26ZM34 24C32.96 24 31.98 23.6 31.22 22.88L30.1 21.8L28.78 22.64C27.3439 23.5305 25.6869 24.0007 23.9971 23.9971C22.3073 23.9936 20.6524 23.5165 19.22 22.62L17.9 21.8L16.78 22.88C16.02 23.58 15.04 24 14 24C12.9998 23.9934 12.0385 23.6122 11.3056 22.9315C10.5727 22.2509 10.1216 21.3203 10.0412 20.3233C9.96087 19.3263 10.2571 18.3355 10.8715 17.5462C11.4859 16.757 12.3738 16.2267 13.36 16.06L14.9 15.8L15.02 14.24C15.42 9.6 19.32 6 24 6C28.68 6 32.58 9.6 32.96 14.24L33.08 15.8L34.62 16.04C36.56 16.36 38 18.02 38 20C38 22.2 36.2 24 34 24Z" fill="#B4B4B4"/>
</svg>
