<svg width="48" height="48" viewBox="0 0 48 48" fill="none" xmlns="http://www.w3.org/2000/svg">
<path d="M6 19.5V17.25C5.99992 16.2658 6.21508 15.2934 6.63041 14.4011C7.04574 13.5088 7.65119 12.7181 8.40432 12.0844C9.15745 11.4508 10.04 10.9895 10.9902 10.7329C11.9405 10.4763 12.9353 10.4306 13.905 10.599C14.5362 8.40928 15.8622 6.48417 17.6831 5.11397C19.5041 3.74378 21.7211 3.00281 24 3.00281C26.2789 3.00281 28.4959 3.74378 30.3169 5.11397C32.1378 6.48417 33.4638 8.40928 34.095 10.599C35.0647 10.4306 36.0595 10.4763 37.0098 10.7329C37.96 10.9895 38.8426 11.4508 39.5957 12.0844C40.3488 12.7181 40.9543 13.5088 41.3696 14.4011C41.7849 15.2934 42.0001 16.2658 42 17.25V19.5C42.0007 24.0147 40.3047 28.3648 37.2485 31.6877C34.1923 35.0106 29.999 37.0638 25.5 37.44V42H22.5V37.44C18.001 37.0638 13.8077 35.0106 10.7515 31.6877C7.69526 28.3648 5.99935 24.0147 6 19.5ZM19.458 17.997H28.542C28.4086 16.8083 28.594 15.6055 29.079 14.5121C29.564 13.4186 30.3313 12.474 31.302 11.775C30.9134 10.1303 29.981 8.66492 28.6557 7.61625C27.3305 6.56759 25.69 5.99705 24 5.99705C22.31 5.99705 20.6695 6.56759 19.3443 7.61625C18.019 8.66492 17.0866 10.1303 16.698 11.775C17.6692 12.4742 18.4367 13.4194 18.9218 14.5134C19.4068 15.6074 19.5919 16.8108 19.458 18V17.997ZM16.041 17.997C16.1522 17.5032 16.151 16.9906 16.0373 16.4973C15.9236 16.004 15.7004 15.5426 15.3842 15.1473C15.068 14.752 14.6669 14.4328 14.2107 14.2135C13.7545 13.9942 13.2547 13.8803 12.7485 13.8803C12.2423 13.8803 11.7425 13.9942 11.2863 14.2135C10.8301 14.4328 10.429 14.752 10.1128 15.1473C9.79662 15.5426 9.57342 16.004 9.45972 16.4973C9.34603 16.9906 9.34476 17.5032 9.456 17.997H16.041ZM31.959 17.997H38.541C38.6522 17.5032 38.651 16.9906 38.5373 16.4973C38.4236 16.004 38.2004 15.5426 37.8842 15.1473C37.568 14.752 37.1669 14.4328 36.7107 14.2135C36.2545 13.9942 35.7547 13.8803 35.2485 13.8803C34.7423 13.8803 34.2425 13.9942 33.7863 14.2135C33.3301 14.4328 32.929 14.752 32.6128 15.1473C32.2966 15.5426 32.0734 16.004 31.9597 16.4973C31.846 16.9906 31.8448 17.5032 31.956 17.997H31.959ZM24 34.5C27.7191 34.5 31.3055 33.1184 34.0634 30.6232C36.8212 28.1281 38.5538 24.6975 38.925 20.997H9.075C9.44616 24.6975 11.1788 28.1281 13.9366 30.6232C16.6945 33.1184 20.2809 34.5 24 34.5ZM18 42.003H30C30.3978 42.003 30.7794 42.161 31.0607 42.4423C31.342 42.7236 31.5 43.1052 31.5 43.503C31.5 43.9008 31.342 44.2824 31.0607 44.5637C30.7794 44.845 30.3978 45.003 30 45.003H18C17.6022 45.003 17.2206 44.845 16.9393 44.5637C16.658 44.2824 16.5 43.9008 16.5 43.503C16.5 43.1052 16.658 42.7236 16.9393 42.4423C17.2206 42.161 17.6022 42.003 18 42.003Z" fill="#B4B4B4"/>
</svg>
