<svg width="48" height="48" viewBox="0 0 48 48" fill="none" xmlns="http://www.w3.org/2000/svg">
<path d="M18.0002 21.98C18.5306 21.98 19.0393 21.7693 19.4144 21.3942C19.7895 21.0191 20.0002 20.5104 20.0002 19.98C20.0002 19.4496 19.7895 18.9409 19.4144 18.5658C19.0393 18.1907 18.5306 17.98 18.0002 17.98C17.4698 17.98 16.961 18.1907 16.586 18.5658C16.2109 18.9409 16.0002 19.4496 16.0002 19.98C16.0002 20.5104 16.2109 21.0191 16.586 21.3942C16.961 21.7693 17.4698 21.98 18.0002 21.98ZM28.0002 25.976C28.0002 26.5064 27.7895 27.0151 27.4144 27.3902C27.0393 27.7653 26.5306 27.976 26.0002 27.976C25.4698 27.976 24.961 27.7653 24.586 27.3902C24.2109 27.0151 24.0002 26.5064 24.0002 25.976C24.0002 25.4456 24.2109 24.9369 24.586 24.5618C24.961 24.1867 25.4698 23.976 26.0002 23.976C26.5306 23.976 27.0393 24.1867 27.4144 24.5618C27.7895 24.9369 28.0002 25.4456 28.0002 25.976ZM18.0002 33.972C18.5306 33.972 19.0393 33.7613 19.4144 33.3862C19.7895 33.0111 20.0002 32.5024 20.0002 31.972C20.0002 31.4416 19.7895 30.9329 19.4144 30.5578C19.0393 30.1827 18.5306 29.972 18.0002 29.972C17.4698 29.972 16.961 30.1827 16.586 30.5578C16.2109 30.9329 16.0002 31.4416 16.0002 31.972C16.0002 32.5024 16.2109 33.0111 16.586 33.3862C16.961 33.7613 17.4698 33.972 18.0002 33.972ZM10.0002 9.32C10.0002 6.326 12.4602 3.71 15.6402 4.024C25.995 5.05032 35.5882 9.92328 42.5242 17.68C44.6642 20.066 43.9982 23.608 41.5662 25.37C38.4022 27.666 33.6862 31.084 31.0002 33.036C30.9962 33.91 30.9962 34.478 30.9982 35.22V36.476C30.9985 36.9876 30.8866 37.4931 30.6704 37.9567C30.4543 38.4204 30.1391 38.8311 29.747 39.1598C29.355 39.4886 28.8957 39.7273 28.4014 39.8594C27.9071 39.9914 27.3899 40.0135 26.8862 39.924C26.4782 41.576 25.0222 42.978 22.9982 42.978C21.5982 42.978 20.4742 42.308 19.7802 41.348L17.1302 43.262C14.1542 45.41 9.99019 43.284 9.99219 39.61L10.0002 9.32ZM15.3462 7.01C14.1282 6.89 12.9982 7.896 12.9982 9.32V10.36C18.0188 10.5708 22.9356 11.8573 27.416 14.1325C31.8964 16.4078 35.8359 19.6186 38.9682 23.548L39.8062 22.94C40.9622 22.1 41.1102 20.594 40.2902 19.68C33.8543 12.4839 24.9534 7.96152 15.3462 7.01ZM12.9922 39.61C12.992 39.8866 13.0682 40.1578 13.2125 40.3938C13.3567 40.6297 13.5634 40.8212 13.8097 40.947C14.056 41.0728 14.3323 41.1281 14.608 41.1068C14.8838 41.0854 15.1482 40.9882 15.3722 40.826L19.6282 37.758C19.8524 37.5967 20.1169 37.5004 20.3923 37.4798C20.6678 37.4592 20.9436 37.5151 21.1894 37.6413C21.4351 37.7674 21.6412 37.959 21.785 38.1949C21.9288 38.4308 22.0046 38.7018 22.0042 38.978C22.0042 39.518 22.4222 39.978 22.9982 39.978C23.1301 39.9793 23.2609 39.9544 23.383 39.9047C23.5052 39.8549 23.6162 39.7814 23.7097 39.6883C23.8031 39.5952 23.8771 39.4845 23.9273 39.3626C23.9775 39.2406 24.003 39.1099 24.0022 38.978V36.474C24.0022 36.0762 24.1602 35.6946 24.4415 35.4133C24.7228 35.132 25.1044 34.974 25.5022 34.974C25.9 34.974 26.2815 35.132 26.5628 35.4133C26.8442 35.6946 27.0022 36.0762 27.0022 36.474C27.0022 36.754 27.2242 36.974 27.4982 36.974C27.6308 36.974 27.758 36.9213 27.8517 36.8275C27.9455 36.7338 27.9982 36.6066 27.9982 36.474V35.23C27.9962 34.29 27.9942 33.614 28.0082 32.252C28.01 32.0178 28.0667 31.7872 28.1737 31.5788C28.2807 31.3705 28.4349 31.19 28.6242 31.052C30.4282 29.74 33.6162 27.428 36.5362 25.312C33.6846 21.7645 30.1108 18.8644 26.0521 16.8044C21.9935 14.7444 17.543 13.5716 12.9962 13.364L12.9922 39.61Z" fill="#B4B4B4"/>
</svg>
